<?xml version="1.0" standalone="no"?>
<!DOCTYPE svg PUBLIC "-//W3C//DTD SVG 1.0//EN" "http://www.w3.org/TR/2001/REC-SVG-20010904/DTD/svg10.dtd">
<svg xmlns="http://www.w3.org/2000/svg" xmlns:xlink="http://www.w3.org/1999/xlink" id="body_1" width="426" height="93">

<g transform="matrix(0.7473482 0 0 0.7473482 26.050838 -8.968178)">
	<g>
		<g transform="matrix(1 0 0 1 50.293236 103.095)">
            <path d="M6.53 0L-0.83 0L10.75 -42.24L24.13 -42.24L27.07 -18.11L38.98 -42.24L50.18 -42.24L51.33 -10.62C 51.49667 -6.44 52.60667 -3.71 54.66 -2.43C 54.18667 -1.5766667 53.26667 -0.74666667 51.9 0.06C 50.54 0.87333333 48.953335 1.28 47.14 1.28C 45.326668 1.28 43.886665 1.0233333 42.82 0.51C 41.753334 -0.0033333302 40.920002 -0.68666667 40.32 -1.54C 39.253334 -3.0733333 38.72 -5.3133335 38.72 -8.26L38.72 -8.26L38.72 -28.03L26.11 0L18.18 0L13.7 -28.74L6.53 0zM77.95 -2.69C 75.903336 -0.04333335 72.34 1.28 67.26 1.28C 64.62 1.28 62.34 0.48000002 60.42 -1.12C 58.5 -2.7200003 57.54 -4.6733336 57.54 -6.98C 57.54 -8.26 57.603333 -9.22 57.73 -9.86L57.73 -9.86L62.02 -32.64L75.01 -33.92L70.34 -9.22C 70.16667 -8.280001 70.08 -7.533334 70.08 -6.98C 70.08 -4.5 70.82667 -3.2600002 72.32 -3.26C 73.986664 -3.2600002 75.41667 -4.3933334 76.61 -6.66C 76.990005 -7.38 77.26667 -8.21 77.44 -9.15L77.44 -9.15L81.98 -32.64L94.59 -33.92L89.86 -8.96C 89.72667 -8.32 89.66 -7.6600003 89.66 -6.98C 89.66 -6.2933335 89.85334 -5.576667 90.24 -4.83C 90.62667 -4.0833335 91.43667 -3.6266668 92.67 -3.46C 92.41667 -2.4333334 91.840004 -1.5799999 90.94 -0.9C 89.066666 0.55333334 87.11667 1.28 85.09 1.28C 83.06334 1.28 81.45334 0.9166667 80.26 0.19C 79.06 -0.5366667 78.29 -1.4966667 77.95 -2.69zM99.07 -6.4C 99.07001 -7.5533333 99.37 -9.58 99.97 -12.48L99.97 -12.48L103.36 -29.76L99.58 -29.76L99.84 -31.68C 104.96 -33.213333 109.99333 -35.86 114.94 -39.62L114.94 -39.62L118.02 -39.62L116.48 -32.64L121.47 -32.64L120.9 -29.76L115.97 -29.76L112.7 -12.48C 112.14667 -9.833334 111.87 -8.0633335 111.87 -7.17C 111.87 -5.1233335 112.76667 -3.8866668 114.56 -3.46C 114.13334 -2.0066667 113.153336 -0.85333335 111.62 0C 110.08 0.85333335 108.22334 1.28 106.05 1.28C 103.87001 1.28 102.16334 0.5966667 100.93 -0.77C 99.69 -2.1366668 99.07001 -4.0133333 99.07 -6.4zM123.68 -1.92C 122.68001 -3.0266666 121.95334 -4.456667 121.5 -6.21C 121.05334 -7.956667 120.83 -10.26 120.83 -13.12C 120.83 -15.98 121.32001 -18.71 122.3 -21.31C 123.286674 -23.916668 124.67334 -26.156668 126.46 -28.03C 130.13333 -31.956667 135 -33.92 141.06 -33.92C 143.23334 -33.92 145.11002 -33.556667 146.69 -32.83L146.69 -32.83L157.63 -33.92L152.9 -8.96C 152.76666 -8.446667 152.70001 -7.7200003 152.7 -6.78C 152.70001 -5.8466673 152.99 -5.08 153.57 -4.48C 154.14334 -3.88 154.85666 -3.5400002 155.71 -3.46C 155.28334 -2.0066667 154.29333 -0.85333335 152.74 0C 151.18 0.85333335 149.52667 1.28 147.78 1.28C 146.02667 1.28 144.56332 0.95000005 143.39 0.29C 142.21667 -0.37 141.46 -1.2566667 141.12 -2.37C 140.44 -1.3033333 139.37335 -0.42666665 137.92 0.26C 136.46667 0.94 134.77 1.28 132.83 1.28C 130.89 1.28 129.13 1.0233333 127.55 0.51C 125.97001 -0.0033333302 124.68001 -0.81333333 123.68 -1.92zM137.18 -27.9C 136.69333 -27.133335 136.23666 -26.1 135.81 -24.8C 135.38333 -23.5 134.81667 -21.11 134.11 -17.63C 133.41 -14.156668 133.06 -11.18 133.06 -8.7C 133.06 -6.2266665 133.25 -4.6266665 133.63 -3.9C 134.01668 -3.18 134.55002 -2.82 135.23 -2.82C 136.59668 -2.82 137.78 -3.47 138.78 -4.77C 139.78667 -6.07 140.48 -7.8733335 140.86 -10.18L140.86 -10.18L144.26 -28.93C 143.36 -29.696667 142.38667 -30.08 141.34 -30.08C 140.3 -30.08 139.47 -29.91 138.85 -29.57C 138.23001 -29.23 137.67334 -28.673332 137.18 -27.9zM188.16 1.28C 183 1.28 180.42 -0.72666657 180.42 -4.74C 180.45999 -5.846667 180.65 -7.34 180.99 -9.22L180.99 -9.22L182.14 -15.1C 183.29333 -20.646667 183.87 -24.04 183.87 -25.28C 183.87 -27.753334 183.14667 -28.990002 181.7 -28.99C 179.26666 -28.990002 177.41 -25.813335 176.13 -19.46L176.13 -19.46L172.35 0L159.49 1.28L166.14 -32.7L176.64 -33.92L175.62 -27.65C 177.62 -31.83 181.69333 -33.92 187.84 -33.92C 190.82669 -33.92 192.95001 -33.29 194.21 -32.03C 195.47 -30.77 196.1 -28.733334 196.1 -25.92C 196.1 -23.273335 195.41667 -18.856667 194.05 -12.67C 193.41 -9.8966675 193.09 -7.986667 193.09 -6.94C 193.09 -5.9000006 193.37668 -5.08 193.95 -4.48C 194.53 -3.88 195.24667 -3.5400002 196.1 -3.46C 195.67334 -2.0066667 194.72334 -0.85333335 193.25 0C 191.77667 0.85333335 190.08 1.28 188.16 1.28zM202.24 -6.4C 202.24002 -7.5533333 202.54001 -9.58 203.14 -12.48L203.14 -12.48L206.53 -29.76L202.75 -29.76L203.01 -31.68C 208.13 -33.213333 213.16335 -35.86 218.11 -39.62L218.11 -39.62L221.18 -39.62L219.65 -32.64L224.64 -32.64L224.06 -29.76L219.14 -29.76L215.87 -12.48C 215.31667 -9.833334 215.04001 -8.0633335 215.04 -7.17C 215.04001 -5.1233335 215.93668 -3.8866668 217.73 -3.46C 217.30334 -2.0066667 216.32 -0.85333335 214.78 0C 213.24667 0.85333335 211.39334 1.28 209.22 1.28C 207.04001 1.28 205.33334 0.5966667 204.1 -0.77C 202.86002 -2.1366668 202.24002 -4.0133333 202.24 -6.4zM239.49 -39.87C 241.49667 -42.216667 244.16335 -43.39 247.49 -43.39C 250.13669 -43.39 252.16336 -42.88 253.57 -41.86C 254.97668 -40.793335 256.15002 -38.956665 257.09 -36.35L257.09 -36.35L259.78 -28.74L269.44 -42.18L278.08 -42.18L262.4 -21.38L266.43 -9.98C 267.03 -8.273334 267.85333 -6.7933335 268.9 -5.54C 269.94 -4.28 270.93 -3.5433335 271.87 -3.33C 271.01666 -1.71 269.85333 -0.5366667 268.38 0.19C 266.91333 0.9166667 265.1 1.28 262.94 1.28C 260.78668 1.28 258.95334 0.5766667 257.44 -0.83C 255.92668 -2.2366667 254.59335 -4.52 253.44 -7.68L253.44 -7.68L251.58 -12.8L241.92 0L234.05 0L248.77 -20.42L244.16 -33.28C 243.48001 -35.16 242.79668 -36.58 242.11 -37.54C 241.43001 -38.5 240.55667 -39.27667 239.49 -39.87zM317.5 1.28C 312.04 1.28 309.05334 -2.6033335 308.54 -10.37L308.54 -10.37L297.54 -10.37C 296.6867 -8.403334 295.96002 -6.5666666 295.36 -4.86L295.36 -4.86L293.7 0L284.74 0L304.9 -42.24L318.66 -42.24L321.34 -11.14C 321.7667 -6.6600003 322.83337 -3.7566667 324.54 -2.43C 323.3067 0.043333292 320.96002 1.28 317.5 1.28zM303.04 -23.17L299.52 -15.04L308.35 -15.04L307.58 -31.49L307.58 -33.22L303.04 -23.17zM358.08 -4.38C 356.28668 -2.5666666 354.16333 -1.1700001 351.71 -0.19C 349.25665 0.79 346.81335 1.28 344.38 1.28C 341.95334 1.28 340.31335 1.0666667 339.46 0.64L339.46 0.64L337.47 11.52L324.48 12.8L333.31 -32.64L343.74 -33.73L342.91 -29.31C 344.70334 -32.343334 347.45667 -33.86 351.17 -33.86C 355.35 -33.86 358.55 -32.513336 360.77 -29.82C 362.72998 -27.393335 363.71 -24.323336 363.71 -20.61C 363.71 -16.896667 363.22 -13.716667 362.24 -11.07C 361.26 -8.423334 359.87335 -6.1933336 358.08 -4.38zM343.62 -22.34L340.22 -3.58C 341.12003 -2.8133335 342.12335 -2.4300003 343.23 -2.43C 344.34332 -2.4300003 345.22 -2.6433334 345.86 -3.07C 346.5 -3.4966667 347.05334 -4.136667 347.52 -4.99C 348.8 -7.2966666 349.95334 -11.946667 350.98 -18.94C 351.27335 -20.993334 351.42 -23.02 351.42 -25.02C 351.42 -27.026669 351.1967 -28.350002 350.75 -28.99C 350.30334 -29.630001 349.65332 -29.95 348.8 -29.95C 346.2 -29.95 344.47333 -27.413334 343.62 -22.34zM393.47 -10.82C 394.53668 -10.093333 395.07 -8.93 395.07 -7.33C 395.07 -5.73 394.6667 -4.416667 393.86 -3.39C 393.0467 -2.3700001 391.98 -1.5166667 390.66 -0.83C 387.92667 0.5766667 385.08667 1.28 382.14 1.28C 379.2 1.28 376.8667 0.96000004 375.14 0.32C 373.40668 -0.32 371.96667 -1.2366667 370.82 -2.43C 368.55334 -4.69 367.42004 -7.8900003 367.42 -12.03C 367.42004 -18.476667 369.17004 -23.66 372.67 -27.58C 376.42334 -31.806667 381.56665 -33.92 388.1 -33.92C 392.15335 -33.92 395.18002 -33.066666 397.18 -31.36C 398.67337 -30.080002 399.42004 -28.393333 399.42 -26.3C 399.42004 -18.793333 392.9367 -15.04 379.97 -15.04C 379.79666 -13.933333 379.71 -12.91 379.71 -11.97C 379.71 -10.003334 380.14667 -8.6466675 381.02 -7.9C 381.90002 -7.1533337 383.15002 -6.7800007 384.77 -6.78C 386.39 -6.7800007 388.06335 -7.1533337 389.79 -7.9C 391.51666 -8.6466675 392.74335 -9.620001 393.47 -10.82zM380.42 -17.79C 383.4467 -17.79 385.83334 -18.730001 387.58 -20.61C 389.33334 -22.403334 390.21002 -24.726665 390.21 -27.58C 390.21002 -28.566666 390.02667 -29.326668 389.66 -29.86C 389.3 -30.393333 388.75665 -30.66 388.03 -30.66C 387.30334 -30.66 386.63336 -30.52 386.02 -30.24C 385.40002 -29.960001 384.77002 -29.353334 384.13 -28.42C 382.55002 -26.286667 381.31335 -22.743334 380.42 -17.79z" stroke="none" fill="#CCCCCC" fill-rule="nonzero" />
		</g>
	</g>
</g>
</svg>